HIERARCHY
ROOT root
{
	OFFSET 0.000000 0.000000 0.000000
	CHANNELS 6 Xposition Yposition Zposition Zrotation Yrotation Xrotation
	JOINT lhip
	{
		OFFSET 0.058581 -0.082280 -0.017664
		CHANNELS 3 Zrotation Yrotation Xrotation
		JOINT lknee
		{
			OFFSET 0.043451 -0.386469 0.008037
			CHANNELS 3 Zrotation Yrotation Xrotation
			JOINT lankle
			{
				OFFSET -0.014790 -0.426874 -0.037428
				CHANNELS 3 Zrotation Yrotation Xrotation
				JOINT ltoe
				{
					OFFSET 0.041054 -0.060286 0.122042
					CHANNELS 3 Zrotation Yrotation Xrotation
					End Site
					{
						OFFSET 0.000000 0.000000 0.000000
					}
				}
			}
		}
	}
	JOINT rhip
	{
		OFFSET -0.060310 -0.090513 -0.013543
		CHANNELS 3 Zrotation Yrotation Xrotation
		JOINT rknee
		{
			OFFSET -0.043257 -0.383688 -0.004843
			CHANNELS 3 Zrotation Yrotation Xrotation
			JOINT rankle
			{
				OFFSET 0.019056 -0.420046 -0.034562
				CHANNELS 3 Zrotation Yrotation Xrotation
				JOINT rtoe
				{
					OFFSET -0.034840 -0.062106 0.130323
					CHANNELS 3 Zrotation Yrotation Xrotation
					End Site
					{
						OFFSET 0.000000 0.000000 0.000000
					}
				}
			}
		}
	}
	JOINT lowerback
	{
		OFFSET 0.004439 0.124404 -0.038385
		CHANNELS 3 Zrotation Yrotation Xrotation
		JOINT upperback
		{
			OFFSET 0.004488 0.137956 0.026820
			CHANNELS 3 Zrotation Yrotation Xrotation
			JOINT chest
			{
				OFFSET -0.002265 0.056032 0.002855
				CHANNELS 3 Zrotation Yrotation Xrotation
				JOINT lowerneck
				{
					OFFSET -0.013390 0.211636 -0.033468
					CHANNELS 3 Zrotation Yrotation Xrotation
					JOINT upperneck
					{
						OFFSET 0.010113 0.088937 0.050410
						CHANNELS 3 Zrotation Yrotation Xrotation
						End Site
						{
							OFFSET 0.000000 0.000000 0.000000
						}
					}
				}
				JOINT lclavicle
				{
					OFFSET 0.071702 0.114000 -0.018898
					CHANNELS 3 Zrotation Yrotation Xrotation
					JOINT lshoulder
					{
						OFFSET 0.122921 0.045205 -0.019046
						CHANNELS 3 Zrotation Yrotation Xrotation
						JOINT lelbow
						{
							OFFSET 0.255332 -0.015649 -0.022946
							CHANNELS 3 Zrotation Yrotation Xrotation
							JOINT lwrist
							{
								OFFSET 0.265709 0.012698 -0.007375
								CHANNELS 3 Zrotation Yrotation Xrotation
								End Site
								{
									OFFSET 0.000000 0.000000 0.000000
								}
							}
						}
					}
				}
				JOINT rclavicle
				{
					OFFSET -0.082954 0.112472 -0.023707
					CHANNELS 3 Zrotation Yrotation Xrotation
					JOINT rshoulder
					{
						OFFSET -0.113228 0.046853 -0.008472
						CHANNELS 3 Zrotation Yrotation Xrotation
						JOINT relbow
						{
							OFFSET -0.260127 -0.014369 -0.031269
							CHANNELS 3 Zrotation Yrotation Xrotation
							JOINT rwrist
							{
								OFFSET -0.269108 0.006794 -0.006027
								CHANNELS 3 Zrotation Yrotation Xrotation
								End Site
								{
									OFFSET 0.000000 0.000000 0.000000
								}
							}
						}
					}
				}
			}
		}
	}
}
MOTION
Frames: 5
Frame Time: 0.033333
0.059664 0.546984 0.883111 -28.820280 3.827710 90.964277 18.399276 17.124835 -22.698118 -0.954994 10.536401 55.042442 -2.695490 5.961268 -31.839613 0.000000 -0.000000 0.000000 -8.341113 -0.323810 -34.258415 1.671274 3.745648 46.466377 5.026140 0.741720 -18.740829 0.000000 -0.000000 0.000000 -5.848006 -4.520266 29.698658 2.013909 -5.600980 -1.007233 2.320424 -4.457131 -2.072669 9.513490 -20.089947 -13.490577 7.297320 -18.066824 2.077769 -24.582694 -6.921881 6.579502 -47.077825 -4.538448 -0.710461 19.923002 -57.625349 -12.778577 14.318819 -11.462950 -25.856834 10.415022 21.216844 -4.873720 36.445552 36.942200 5.587569 -141.313262 62.693486 -141.635106 -13.141372 24.408437 -71.248137 
0.059045 0.547195 0.883109 -29.972134 3.789516 90.926300 18.429204 17.326485 -22.216544 -0.803035 10.825645 55.020898 -2.287896 6.349402 -31.481885 0.000000 -0.000000 0.000000 -8.257122 -0.058193 -34.574655 2.142634 4.129318 46.385994 4.757639 0.888261 -18.521618 0.000000 -0.000000 0.000000 -5.925023 -4.959573 29.468431 2.291613 -5.849859 -0.670938 2.401888 -4.889444 -1.970378 9.427311 -19.875788 -13.602440 7.214978 -18.046249 1.983324 -24.813601 -6.724778 6.644862 -46.954004 -4.603987 -0.729250 20.281810 -57.684277 -12.949008 14.237989 -11.432809 -25.795774 10.288761 21.205940 -4.492048 36.090721 37.474249 5.420665 -141.163588 62.515851 -141.105922 -13.308499 24.422833 -71.812081 
0.058027 0.547645 0.883383 -30.817510 3.717927 91.116503 18.357528 17.635172 -22.160203 -0.459434 10.982470 55.044313 -2.662383 6.550266 -31.737485 0.000000 -0.000000 0.000000 -8.245106 0.319796 -35.053408 2.269718 4.204364 46.377980 4.930783 1.110528 -18.368344 0.000000 -0.000000 0.000000 -5.985994 -5.201217 29.176143 2.509465 -6.101078 -0.486864 2.373129 -4.903355 -2.046003 10.054275 -20.110275 -13.809910 7.118678 -18.304370 1.961921 -24.747492 -6.795787 6.805790 -47.022970 -4.892873 -0.507174 20.143375 -57.479816 -12.980099 13.816579 -11.653366 -25.421569 10.633133 20.624327 -4.999161 36.335789 37.310091 5.862005 -141.167223 62.302913 -141.262425 -12.099421 25.062870 -71.167755 
0.056966 0.548059 0.883367 -31.423997 3.696849 91.279771 18.399569 17.709598 -22.087204 -0.237737 11.250334 55.038858 -2.549081 6.604369 -31.565964 0.000000 -0.000000 0.000000 -8.230903 0.599161 -35.389239 2.449408 4.223718 46.373327 4.896840 1.188399 -18.229719 0.000000 -0.000000 0.000000 -6.022137 -5.448007 28.878084 2.779553 -6.334124 -0.245637 2.467370 -4.965096 -2.066742 10.457583 -20.068899 -14.088230 6.797728 -18.233007 2.215022 -24.730355 -6.874020 7.085823 -47.322667 -5.328096 -0.595873 20.484040 -57.420996 -13.016596 13.242267 -11.970149 -24.817458 10.651903 20.425970 -5.060696 36.041978 37.261901 5.680721 -141.560992 62.207221 -141.230236 -12.040872 25.983146 -71.456212 
0.056160 0.547750 0.883802 -31.775949 3.447370 91.292708 18.245774 17.519792 -21.776313 -0.106336 11.606242 54.843197 -2.667010 6.785750 -31.492334 0.000000 -0.000000 0.000000 -8.455938 0.617650 -35.455665 2.523539 4.249899 46.343557 4.995365 1.431877 -18.216782 0.000000 -0.000000 0.000000 -6.054221 -5.665853 28.876435 2.928159 -6.649732 -0.378205 2.485603 -5.104033 -1.998359 10.467315 -19.757677 -13.911929 6.705802 -18.266330 2.215586 -24.827494 -6.941192 7.169969 -47.423803 -5.456959 -0.431937 20.084026 -57.415857 -12.504678 13.556814 -12.219582 -24.860605 10.863684 20.309968 -5.040591 35.723954 37.250885 5.763639 -142.159576 62.145704 -141.731112 -12.302191 25.557439 -71.754667 
